Coordinates
version=1
nRows=13
nColumns=40
inDegrees=yes

Units are S.I. units (second, meters, Newtons, ...)
Angles are in degrees.

endheader
time	pelvis_tilt	pelvis_list	pelvis_rotation	pelvis_tx	pelvis_ty	pelvis_tz	hip_flexion_r	hip_adduction_r	hip_rotation_r	knee_angle_r	knee_angle_r_beta	ankle_angle_r	subtalar_angle_r	mtp_angle_r	hip_flexion_l	hip_adduction_l	hip_rotation_l	knee_angle_l	knee_angle_l_beta	ankle_angle_l	subtalar_angle_l	mtp_angle_l	lumbar_extension	lumbar_bending	lumbar_rotation	arm_flex_r	arm_add_r	arm_rot_r	elbow_flex_r	pro_sup_r	wrist_flex_r	wrist_dev_r	arm_flex_l	arm_add_l	arm_rot_l	elbow_flex_l	pro_sup_l	wrist_flex_l	wrist_dev_l
     27.65000000	     -6.15896103	     -6.02297469	     -0.67038896	      1.03419044	      0.93603680	      0.40462312	     38.79352856	     -2.52305378	     -5.08269210	     59.62617159	     59.62617159	     -1.18053192	    -17.40721105	      7.17786523	     13.21019446	     -5.58500698	     -6.65605613	     18.61968741	     18.61968741	     13.41095530	    -12.12154645	      3.19593768	    -10.58124231	      7.36005939	      3.14343484	     -3.08323941	    -12.48520396	     -9.16807536	     22.57208601	     46.84634982	      0.00000000	      0.00000000	     19.97926211	    -13.22677938	     -0.19367095	     63.28744196	     46.64422601	      0.00000000	      0.00000000
     27.66200000	     -6.18788068	     -6.25708928	     -0.93381843	      1.03308586	      0.93655008	      0.40518768	     38.94565859	     -2.05628728	     -5.32030861	     55.85854965	     55.85854965	     -0.96643542	    -16.44317422	      6.65991099	     12.44235894	     -5.85150165	     -6.81958061	     18.01414153	     18.01414153	     13.60884895	    -12.02449145	      3.23118320	    -10.81526655	      7.66076459	      3.33121120	     -4.50988313	    -12.64914415	     -9.21951976	     22.12304851	     46.85830326	      0.00000000	      0.00000000	     20.68767300	    -13.24468999	     -0.70075978	     65.04635014	     46.71799792	      0.00000000	      0.00000000
     27.67400000	     -6.19680574	     -6.34706004	     -1.22911530	      1.03206519	      0.93672280	      0.40581817	     38.71218016	     -1.75634661	     -5.58426921	     51.39676164	     51.39676164	     -2.22291797	    -15.77338989	      1.47385559	     11.72893857	     -5.96998431	     -6.99756554	     17.58343577	     17.58343577	     13.76479366	    -12.04796222	      3.02762694	    -11.20439178	      7.69378586	      2.65246232	     -5.70272187	    -12.74821934	     -9.51789967	     22.94437933	     46.84175281	      0.00000000	      0.00000000	     19.84781204	    -13.75027402	     -2.85742835	     69.98297232	     46.98993866	      0.00000000	      0.00000000
     27.68600000	     -6.35159780	     -6.39914029	     -1.52556942	      1.03105301	      0.93660708	      0.40657317	     38.55683859	     -1.45860864	     -5.83780309	     46.87144009	     46.87144009	     -2.08591567	    -14.22012646	      0.72866938	     11.16390223	     -6.05695682	     -7.25394624	     17.13050944	     17.13050944	     13.96477618	    -11.98931541	      2.99379140	    -11.26147315	      7.73733175	      2.98361520	     -7.08159787	    -12.80855259	     -9.42143163	     22.40348438	     46.84563945	      0.00000000	      0.00000000	     20.80945731	    -13.71190720	     -3.31469001	     71.17623867	     47.06145024	      0.00000000	      0.00000000
     27.69800000	     -6.46927157	     -6.51997925	     -1.77618806	      1.03018302	      0.93630951	      0.40742836	     38.06538378	     -1.11294416	     -6.28963918	     41.98184447	     41.98184447	     -1.86861906	    -12.32753171	      0.01914075	     10.62126698	     -6.22042945	     -7.41062810	     16.81135840	     16.81135840	     14.24732989	    -11.98625392	      2.87169647	    -11.36589024	      7.84459973	      3.08411784	     -8.35511488	    -12.86561302	     -9.44015670	     22.33402248	     46.83846842	      0.00000000	      0.00000000	     21.44866298	    -13.84089250	     -3.78639079	     72.67025251	     47.13599173	      0.00000000	      0.00000000
     27.71000000	     -6.59873035	     -6.59444400	     -1.97232394	      1.02952982	      0.93577505	      0.40828473	     37.27950622	     -0.79537109	     -6.86521619	     36.72256402	     36.72256402	     -2.12818212	    -10.51651408	     -1.63015372	     10.11359272	     -6.33355402	     -7.55416496	     16.54137750	     16.54137750	     14.46452176	    -12.00957632	      2.59065056	    -11.38089346	      7.91801506	      2.87835921	     -9.68456481	    -12.94603663	     -9.52492093	     23.06510433	     46.80032958	      0.00000000	      0.00000000	     21.57911387	    -14.06814261	     -4.60599429	     74.86657465	     47.26836457	      0.00000000	      0.00000000
     27.72200000	     -6.72825677	     -6.67413980	     -2.13783206	      1.02906745	      0.93501180	      0.40926657	     36.36545077	     -0.38842234	     -7.43171677	     31.54287233	     31.54287233	     -1.83447048	     -8.52077892	     -1.05195874	      9.63099365	     -6.45589157	     -7.63630158	     16.34622627	     16.34622627	     14.78717993	    -12.07061223	      2.40026849	    -11.29436121	      8.00191611	      2.93784447	    -10.70589320	    -12.95261676	     -9.52932757	     22.79353959	     46.80244064	      0.00000000	      0.00000000	     22.21077957	    -14.20155239	     -4.80752123	     75.68082503	     47.30666667	      0.00000000	      0.00000000
     27.73400000	     -6.75636833	     -6.65705881	     -2.31775180	      1.02891242	      0.93418281	      0.41040605	     35.17890237	     -0.07548579	     -8.26513956	     26.47609118	     26.47609118	     -1.47265252	     -6.01151297	     -0.21625172	      8.99923642	     -6.48516243	     -7.81219872	     16.12177074	     16.12177074	     15.12068671	    -12.02752240	      2.09166722	    -11.37732580	      7.91517452	      3.10695560	    -11.77688365	    -12.88784461	     -9.58282658	     22.73749102	     46.79803374	      0.00000000	      0.00000000	     22.76201161	    -14.23793192	     -5.04997881	     76.89625548	     47.35748743	      0.00000000	      0.00000000
     27.74600000	     -6.91465623	     -6.52693475	     -2.48288497	      1.02894341	      0.93287216	      0.41168312	     34.13908312	      0.23191963	     -8.95083272	     21.84354902	     21.84354902	     -1.22186216	     -3.98768728	      0.90648345	      8.53689259	     -6.40256664	     -7.96549032	     15.96587908	     15.96587908	     15.45185743	    -12.04597151	      1.78281812	    -11.17855810	      7.71156649	      3.15950698	    -12.61187882	    -12.71211932	     -9.63239065	     22.70394526	     46.79417464	      0.00000000	      0.00000000	     23.22164909	    -14.36308039	     -5.22088241	     77.78397699	     47.39330636	      0.00000000	      0.00000000
     27.75800000	     -6.75508325	     -6.48670694	     -2.55478016	      1.02948360	      0.93183525	      0.41291587	     32.77139734	      0.52846792	    -10.19914748	     17.89276205	     17.89276205	     -0.60861169	     -1.45907336	      2.70894837	      7.65240848	     -6.40775815	     -8.13322096	     15.71988001	     15.71988001	     15.84071372	    -11.86410579	      1.25504997	    -11.36402134	      7.63477945	      3.25553053	    -13.58414445	    -12.67688851	     -9.77845315	     22.90358341	     46.78695838	      0.00000000	      0.00000000	     23.48426288	    -14.35754436	     -5.39059257	     79.04030007	     47.43861597	      0.00000000	      0.00000000
     27.77000000	     -6.84642908	     -6.32295544	     -2.69706149	      1.02996161	      0.93035971	      0.41437289	     32.14245836	      0.67469292	    -11.56744488	     15.45681962	     15.45681962	      1.54209412	      1.08387923	      8.97168202	      7.03592875	     -6.30245460	     -8.40896051	     15.44044814	     15.44044814	     15.80929779	    -11.83385759	     -0.05061941	    -11.18468435	      7.35545539	      3.15765700	    -14.54304896	    -12.51933163	    -10.29172388	     24.14275697	     46.75926554	      0.00000000	      0.00000000	     23.35081906	    -14.54259253	     -5.78289546	     80.63010629	     47.55383519	      0.00000000	      0.00000000
     27.78200000	     -6.84053237	     -6.15310741	     -2.80740583	      1.03073488	      0.92889207	      0.41597594	     31.22136949	      0.96666504	    -12.47959689	     13.14670840	     13.14670840	      1.70975874	      2.13299098	      9.71817077	      6.34620132	     -6.18666715	     -8.55962365	     15.28446737	     15.28446737	     16.23751586	    -11.77953065	     -0.27967538	    -11.04818679	      7.08561831	      3.25719866	    -14.97532833	    -12.35258840	    -10.29664709	     23.96994529	     46.76177553	      0.00000000	      0.00000000	     23.65401582	    -14.50488600	     -5.78772351	     81.00699039	     47.57121838	      0.00000000	      0.00000000
     27.79400000	     -6.95613979	     -5.85218113	     -2.89566923	      1.03158153	      0.92702467	      0.41766200	     30.88441918	      1.04628998	    -13.05849337	     12.29844607	     12.29844607	      2.06317163	      2.32052480	      9.87887284	      5.85310737	     -5.93909014	     -8.63912561	     15.24945081	     15.24945081	     16.71904104	    -11.77228188	     -0.50966955	    -10.70030142	      6.67548949	      3.20165651	    -15.30083916	    -12.13652603	    -10.29605603	     23.87903638	     46.76153989	      0.00000000	      0.00000000	     23.82249506	    -14.59186998	     -5.83943180	     81.18992117	     47.58128489	      0.00000000	      0.00000000
